<svg xmlns="http://www.w3.org/2000/svg" width="800" height="600" viewBox="0 0 800 600"><rect width="100%" height="100%" fill="#DDDDDD"/><path fill="#999999" d="M177.19 266.255h5.73q2.11 0 3.67-.53 1.57-.53 2.61-1.51 1.04-.98 1.55-2.39.52-1.41.52-3.15 0-1.66-.52-3-.51-1.33-1.54-2.27-1.02-.95-2.59-1.44-1.57-.5-3.7-.5h-5.73v14.79Zm-7.67-20.72h13.4q4.13 0 7.15.97 3.02.97 4.99 2.71 1.96 1.73 2.92 4.16.95 2.42.95 5.3 0 2.99-.99 5.48-1 2.5-3 4.29-1.99 1.8-5 2.8-3.01.99-7.02.99h-5.73v14.51h-7.67v-41.21Zm34.26-1.14h7.04v42.35h-7.04v-42.35Zm29.52 34.8v-4.93q-3.05.14-5.13.52-2.08.39-3.33.99t-1.8 1.39q-.54.8-.54 1.74 0 1.85 1.1 2.65 1.1.8 2.86.8 2.17 0 3.75-.78 1.58-.79 3.09-2.38Zm-14.87-15.36-1.26-2.26q5.05-4.61 12.14-4.61 2.57 0 4.59.84 2.03.84 3.42 2.34 1.4 1.49 2.13 3.57.72 2.08.72 4.56v18.47h-3.19q-1 0-1.54-.3t-.85-1.21l-.63-2.11q-1.11 1-2.17 1.75-1.05.76-2.19 1.27t-2.44.79q-1.29.27-2.86.27-1.85 0-3.42-.5-1.57-.5-2.71-1.5t-1.77-2.48q-.62-1.48-.62-3.45 0-1.11.37-2.21.37-1.09 1.21-2.09.84-1 2.18-1.88 1.34-.89 3.29-1.54 1.95-.66 4.55-1.07 2.59-.41 5.92-.5v-1.71q0-2.93-1.25-4.34-1.25-1.42-3.62-1.42-1.71 0-2.83.4-1.13.4-1.99.9-.85.5-1.55.9-.7.4-1.55.4-.74 0-1.26-.39-.51-.38-.82-.89Zm51.16-2.71-1.86 2.56q-.31.4-.61.63-.3.23-.87.23-.54 0-1.05-.33-.52-.33-1.23-.74t-1.7-.74q-.98-.33-2.43-.33-1.85 0-3.25.67t-2.32 1.92q-.93 1.26-1.39 3.04-.45 1.78-.45 4.03 0 2.34.5 4.16.5 1.83 1.44 3.07.94 1.24 2.28 1.88 1.34.64 3.02.64t2.72-.41q1.04-.42 1.75-.92.71-.49 1.24-.91.53-.41 1.18-.41.86 0 1.29.65l2.02 2.57q-1.17 1.37-2.54 2.29-1.36.93-2.83 1.49-1.47.55-3.02.78-1.56.23-3.1.23-2.7 0-5.1-1.01-2.39-1.02-4.19-2.95-1.79-1.94-2.83-4.75t-1.04-6.4q0-3.22.92-5.97.93-2.75 2.73-4.76 1.79-2.01 4.44-3.15 2.65-1.14 6.1-1.14 3.28 0 5.74 1.06 2.47 1.05 4.44 3.02Zm10.23 7.64h13.28q0-1.37-.39-2.58-.38-1.21-1.15-2.13-.77-.91-1.95-1.44-1.19-.52-2.75-.52-3.05 0-4.81 1.74-1.75 1.73-2.23 4.93Zm17.95 4.24h-18.1q.17 2.25.8 3.89.63 1.64 1.65 2.71 1.03 1.07 2.44 1.6 1.41.52 3.12.52 1.71 0 2.95-.4 1.24-.39 2.17-.88.92-.48 1.62-.88.7-.4 1.36-.4.88 0 1.31.65l2.02 2.57q-1.17 1.37-2.62 2.29-1.45.93-3.04 1.49-1.58.55-3.22.78-1.64.23-3.17.23-3.05 0-5.68-1.01-2.62-1.02-4.56-3-1.93-1.98-3.05-4.9-1.11-2.92-1.11-6.77 0-2.99.97-5.63.97-2.63 2.78-4.58 1.81-1.96 4.42-3.1 2.61-1.14 5.88-1.14 2.77 0 5.1.89 2.34.88 4.02 2.58 1.68 1.69 2.64 4.16.95 2.46.95 5.63 0 1.59-.34 2.15-.34.55-1.31.55Zm13.97-28.61v16.24q1.71-1.59 3.76-2.59 2.05-1 4.81-1 2.4 0 4.25.82 1.85.81 3.09 2.28 1.24 1.46 1.88 3.5.65 2.04.65 4.49v18.61h-7.04v-18.61q0-2.68-1.23-4.15-1.22-1.47-3.73-1.47-1.83 0-3.42.83-1.6.83-3.02 2.25v21.15h-7.04v-42.35h7.04Zm38.04 12.65q3.25 0 5.92 1.06 2.66 1.05 4.56 2.99 1.89 1.94 2.92 4.73 1.02 2.79 1.02 6.24 0 3.48-1.02 6.27-1.03 2.8-2.92 4.76-1.9 1.97-4.56 3.02-2.67 1.06-5.92 1.06-3.27 0-5.95-1.06-2.68-1.05-4.58-3.02-1.89-1.96-2.93-4.76-1.04-2.79-1.04-6.27 0-3.45 1.04-6.24t2.93-4.73q1.9-1.94 4.58-2.99 2.68-1.06 5.95-1.06Zm0 24.71q3.65 0 5.4-2.45 1.76-2.45 1.76-7.18 0-4.73-1.76-7.21-1.75-2.48-5.4-2.48-3.7 0-5.48 2.49-1.78 2.5-1.78 7.2t1.78 7.17q1.78 2.46 5.48 2.46Zm19.9-37.36h7.04v42.35h-7.04v-42.35Zm32.43 33.69v-13.11q-1.2-1.46-2.61-2.06-1.41-.59-3.03-.59-1.6 0-2.88.59-1.28.6-2.2 1.81-.91 1.22-1.39 3.08-.49 1.87-.49 4.4 0 2.57.42 4.35.41 1.78 1.18 2.91.77 1.12 1.88 1.62 1.11.5 2.48.5 2.19 0 3.73-.91t2.91-2.59Zm0-33.69h7.04v42.35h-4.3q-1.4 0-1.77-1.28l-.6-2.82q-1.77 2.02-4.06 3.27-2.3 1.26-5.34 1.26-2.4 0-4.39-1-2-1-3.44-2.89-1.44-1.9-2.22-4.69-.78-2.79-.78-6.39 0-3.24.88-6.04.88-2.79 2.54-4.84 1.65-2.05 3.96-3.21 2.31-1.15 5.18-1.15 2.45 0 4.19.77 1.74.77 3.11 2.08v-15.42Zm19.55 24.37h13.28q0-1.37-.38-2.58-.39-1.21-1.16-2.13-.77-.91-1.95-1.44-1.18-.52-2.75-.52-3.05 0-4.8 1.74-1.75 1.73-2.24 4.93Zm17.96 4.24h-18.1q.17 2.25.8 3.89.62 1.64 1.65 2.71 1.03 1.07 2.44 1.6 1.41.52 3.12.52 1.71 0 2.95-.4 1.24-.39 2.16-.88.93-.48 1.63-.88.7-.4 1.35-.4.88 0 1.31.65l2.03 2.57q-1.17 1.37-2.63 2.29-1.45.93-3.03 1.49-1.58.55-3.22.78-1.64.23-3.18.23-3.05 0-5.67-1.01-2.62-1.02-4.56-3-1.94-1.98-3.05-4.9-1.11-2.92-1.11-6.77 0-2.99.97-5.63.97-2.63 2.78-4.58 1.81-1.96 4.41-3.1 2.61-1.14 5.89-1.14 2.76 0 5.1.89 2.34.88 4.02 2.58 1.68 1.69 2.63 4.16.96 2.46.96 5.63 0 1.59-.34 2.15-.34.55-1.31.55Zm13.13-13.73.43 3.3q1.37-2.62 3.25-4.12 1.88-1.49 4.45-1.49 2.02 0 3.25.88l-.46 5.27q-.14.52-.41.73-.27.21-.73.21-.43 0-1.27-.14-.84-.14-1.64-.14-1.17 0-2.08.34-.91.34-1.64.98-.72.65-1.28 1.56-.55.91-1.04 2.08v18.01h-7.04v-29.24h4.13q1.09 0 1.51.38.43.39.57 1.39Zm37.71-13.74v41.21h-7.7v-41.21h7.7Zm15.13 41.21h-7.04v-29.24h4.31q1.37 0 1.79 1.28l.46 2.17q.77-.86 1.61-1.57.84-.71 1.79-1.23.96-.51 2.06-.81 1.09-.3 2.4-.3 2.77 0 4.55 1.5 1.78 1.5 2.67 3.97.68-1.45 1.71-2.49 1.02-1.04 2.25-1.69 1.22-.66 2.6-.97 1.39-.32 2.78-.32 2.43 0 4.31.74 1.88.75 3.16 2.17 1.28 1.42 1.95 3.48.67 2.05.67 4.7v18.61h-7.04v-18.61q0-2.79-1.22-4.2-1.23-1.42-3.59-1.42-1.09 0-2.01.38-.93.37-1.63 1.06-.7.7-1.09 1.76-.4 1.05-.4 2.42v18.61h-7.07v-18.61q0-2.94-1.18-4.28-1.19-1.34-3.47-1.34-1.54 0-2.86.76-1.33.76-2.47 2.07v21.4Zm56.15-7.55v-4.93q-3.05.14-5.13.52-2.08.39-3.34.99-1.25.6-1.79 1.39-.54.8-.54 1.74 0 1.85 1.09 2.65 1.1.8 2.87.8 2.16 0 3.75-.78 1.58-.79 3.09-2.38Zm-14.88-15.36-1.25-2.26q5.04-4.61 12.14-4.61 2.56 0 4.59.84 2.02.84 3.42 2.34 1.39 1.49 2.12 3.57.73 2.08.73 4.56v18.47h-3.19q-1 0-1.54-.3-.55-.3-.86-1.21l-.63-2.11q-1.11 1-2.16 1.75-1.06.76-2.2 1.27-1.14.51-2.43.79-1.3.27-2.87.27-1.85 0-3.42-.5-1.56-.5-2.7-1.5-1.14-1-1.77-2.48-.63-1.48-.63-3.45 0-1.11.37-2.21.37-1.09 1.21-2.09.84-1 2.18-1.88 1.34-.89 3.29-1.54 1.96-.66 4.55-1.07 2.59-.41 5.93-.5v-1.71q0-2.93-1.26-4.34-1.25-1.42-3.61-1.42-1.71 0-2.84.4t-1.98.9l-1.55.9q-.7.4-1.56.4-.74 0-1.25-.39-.51-.38-.83-.89Zm39.05 7.58q1.31 0 2.28-.36.97-.36 1.61-.98.64-.63.97-1.51.32-.89.32-1.94 0-2.17-1.29-3.44-1.3-1.26-3.89-1.26-2.6 0-3.89 1.26-1.3 1.27-1.3 3.44 0 1.02.33 1.91.33.88.97 1.52.64.64 1.62 1 .98.36 2.27.36Zm7.95 16.64q0-.85-.51-1.4-.52-.54-1.4-.84-.88-.3-2.07-.44-1.18-.14-2.51-.21-1.32-.07-2.73-.13t-2.75-.23q-1.17.66-1.9 1.54-.72.88-.72 2.05 0 .77.38 1.44.39.67 1.23 1.16.84.48 2.18.75 1.34.27 3.27.27 1.97 0 3.4-.3 1.42-.3 2.35-.82.92-.53 1.35-1.26.43-.72.43-1.58Zm-1.4-29.55h8.41v2.62q0 1.25-1.51 1.54l-2.62.48q.6 1.51.6 3.31 0 2.16-.87 3.92-.87 1.75-2.41 2.97-1.54 1.23-3.64 1.9-2.09.67-4.51.67-.86 0-1.66-.09-.79-.08-1.56-.22-1.37.82-1.37 1.85 0 .88.81 1.3.81.41 2.15.58 1.34.17 3.05.21 1.71.05 3.51.19 1.79.14 3.5.5 1.71.35 3.05 1.12 1.34.77 2.15 2.1.82 1.32.82 3.4 0 1.94-.96 3.77-.95 1.82-2.76 3.25-1.81 1.42-4.45 2.29-2.64.87-6 .87-3.3 0-5.76-.64-2.45-.64-4.07-1.71-1.63-1.07-2.42-2.47-.8-1.39-.8-2.91 0-2.05 1.24-3.43 1.24-1.38 3.4-2.21-1.16-.6-1.85-1.59-.68-1-.68-2.63 0-.65.24-1.35.24-.7.71-1.38.47-.69 1.19-1.3.71-.61 1.68-1.1-2.23-1.19-3.49-3.19-1.27-1.99-1.27-4.67 0-2.17.87-3.92t2.42-2.99q1.55-1.24 3.68-1.9 2.12-.65 4.63-.65 1.88 0 3.53.38 1.65.39 3.02 1.13Zm18.41 10.26h13.28q0-1.37-.38-2.58-.39-1.21-1.16-2.13-.76-.91-1.95-1.44-1.18-.52-2.75-.52-3.05 0-4.8 1.74-1.75 1.73-2.24 4.93Zm17.96 4.24h-18.1q.17 2.25.8 3.89.63 1.64 1.65 2.71 1.03 1.07 2.44 1.6 1.41.52 3.12.52 1.71 0 2.95-.4 1.24-.39 2.16-.88.93-.48 1.63-.88.7-.4 1.35-.4.89 0 1.31.65l2.03 2.57q-1.17 1.37-2.62 2.29-1.46.93-3.04 1.49-1.58.55-3.22.78-1.64.23-3.18.23-3.05 0-5.67-1.01-2.62-1.02-4.56-3-1.94-1.98-3.05-4.9-1.11-2.92-1.11-6.77 0-2.99.97-5.63.97-2.63 2.78-4.58 1.81-1.96 4.41-3.1 2.61-1.14 5.89-1.14 2.76 0 5.1.89 2.34.88 4.02 2.58 1.68 1.69 2.64 4.16.95 2.46.95 5.63 0 1.59-.34 2.15-.34.55-1.31.55Zm-313.9 77.1q1.74 0 3.05-.5 1.31-.5 2.21-1.39.89-.88 1.35-2.1.46-1.23.46-2.65 0-3.4-1.88-5.13-1.89-1.74-5.19-1.74-3.31 0-5.19 1.74-1.88 1.73-1.88 5.13 0 1.42.46 2.65.45 1.22 1.35 2.1.9.89 2.21 1.39 1.31.5 3.05.5Zm0-31.33q-1.57 0-2.71.49-1.14.48-1.89 1.3-.76.81-1.12 1.86-.35 1.06-.35 2.23 0 1.22.3 2.37.3 1.16 1.01 2.06.71.89 1.88 1.44 1.17.54 2.88.54t2.88-.54q1.17-.55 1.88-1.44.71-.9 1.01-2.06.3-1.15.3-2.37 0-1.17-.37-2.23-.37-1.05-1.11-1.86-.74-.82-1.88-1.3-1.14-.49-2.71-.49Zm6.95 14.88q3.76 1.23 5.56 3.75 1.8 2.52 1.8 6.17 0 2.74-1.04 4.96-1.05 2.22-2.93 3.79-1.88 1.57-4.51 2.42-2.64.86-5.83.86t-5.83-.86q-2.64-.85-4.52-2.42-1.88-1.57-2.92-3.79-1.04-2.22-1.04-4.96 0-3.65 1.8-6.17 1.79-2.52 5.55-3.75-2.99-1.25-4.48-3.56-1.5-2.31-1.5-5.56 0-2.34.95-4.36.96-2.02 2.67-3.52t4.09-2.34q2.38-.84 5.23-.84 2.85 0 5.23.84 2.38.84 4.09 2.34t2.66 3.52q.96 2.02.96 4.36 0 3.25-1.5 5.56-1.5 2.31-4.49 3.56Zm41.21.88q0 5.39-1.15 9.37-1.16 3.97-3.19 6.57-2.04 2.59-4.82 3.86-2.78 1.27-6 1.27t-5.97-1.27q-2.75-1.27-4.77-3.86-2.03-2.6-3.17-6.57-1.14-3.98-1.14-9.37 0-5.41 1.14-9.37 1.14-3.96 3.17-6.56 2.02-2.59 4.77-3.86 2.75-1.27 5.97-1.27 3.22 0 6 1.27t4.82 3.86q2.03 2.6 3.19 6.56 1.15 3.96 1.15 9.37Zm-7.26 0q0-4.47-.66-7.41-.66-2.93-1.75-4.67-1.1-1.74-2.52-2.44-1.43-.69-2.97-.69-1.51 0-2.92.69-1.41.7-2.49 2.44-1.09 1.74-1.73 4.67-.64 2.94-.64 7.41 0 4.48.64 7.41.64 2.94 1.73 4.68 1.08 1.74 2.49 2.44 1.41.69 2.92.69 1.54 0 2.97-.69 1.42-.7 2.52-2.44 1.09-1.74 1.75-4.68.66-2.93.66-7.41Zm40.32 0q0 5.39-1.15 9.37-1.15 3.97-3.19 6.57-2.04 2.59-4.82 3.86-2.78 1.27-6 1.27t-5.97-1.27q-2.75-1.27-4.77-3.86-2.03-2.6-3.17-6.57-1.14-3.98-1.14-9.37 0-5.41 1.14-9.37 1.14-3.96 3.17-6.56 2.02-2.59 4.77-3.86 2.75-1.27 5.97-1.27 3.22 0 6 1.27t4.82 3.86q2.04 2.6 3.19 6.56 1.15 3.96 1.15 9.37Zm-7.26 0q0-4.47-.66-7.41-.65-2.93-1.75-4.67-1.1-1.74-2.52-2.44-1.43-.69-2.97-.69-1.51 0-2.92.69-1.41.7-2.49 2.44-1.09 1.74-1.73 4.67-.64 2.94-.64 7.41 0 4.48.64 7.41.64 2.94 1.73 4.68 1.08 1.74 2.49 2.44 1.41.69 2.92.69 1.54 0 2.97-.69 1.42-.7 2.52-2.44t1.75-4.68q.66-2.93.66-7.41Zm28.27 5.22 10 15.39h-6.78q-.77 0-1.24-.4t-.78-.91l-6.19-10.18q-.14.49-.33.92-.18.42-.41.79l-5.47 8.47q-.32.48-.77.9-.46.41-1.14.41h-6.3l10.03-15.08-9.63-14.16h6.78q.77 0 1.14.21.37.22.66.7l6.12 9.75q.32-.97.89-1.91l4.93-7.7q.63-1.05 1.62-1.05h6.47l-9.6 13.85Zm37.28-25.82-12.23 14.96-1.43 1.77q1.2-.6 2.58-.93 1.39-.33 2.98-.33 2.34 0 4.55.77t3.89 2.33q1.68 1.55 2.71 3.86 1.02 2.31 1.02 5.39 0 2.87-1.05 5.4-1.06 2.52-2.97 4.4-1.91 1.88-4.6 2.96-2.69 1.09-5.94 1.09-3.31 0-5.93-1.06-2.62-1.05-4.47-2.95-1.86-1.89-2.84-4.56-.98-2.66-.98-5.91 0-2.91 1.18-5.97 1.18-3.07 3.66-6.37l9.83-13.2q.52-.68 1.5-1.17.98-.48 2.27-.48h6.27Zm-10.63 35.91q1.68 0 3.09-.57t2.42-1.6q1.01-1.02 1.58-2.41.57-1.38.57-3 0-1.77-.54-3.18-.54-1.41-1.54-2.39-1-.99-2.39-1.5-1.4-.51-3.08-.51-1.68 0-3.05.57-1.37.57-2.34 1.58-.97 1.01-1.51 2.39-.54 1.39-.54 2.98 0 1.71.47 3.12.47 1.41 1.4 2.41.92 1 2.29 1.55 1.37.56 3.17.56Zm48.22-15.31q0 5.39-1.16 9.37-1.15 3.97-3.19 6.57-2.04 2.59-4.82 3.86-2.77 1.27-5.99 1.27t-5.98-1.27q-2.75-1.27-4.77-3.86-2.02-2.6-3.16-6.57-1.14-3.98-1.14-9.37 0-5.41 1.14-9.37 1.14-3.96 3.16-6.56 2.02-2.59 4.77-3.86 2.76-1.27 5.98-1.27 3.22 0 5.99 1.27 2.78 1.27 4.82 3.86 2.04 2.6 3.19 6.56 1.16 3.96 1.16 9.37Zm-7.27 0q0-4.47-.66-7.41-.65-2.93-1.75-4.67-1.1-1.74-2.52-2.44-1.43-.69-2.96-.69-1.51 0-2.93.69-1.41.7-2.49 2.44-1.08 1.74-1.72 4.67-.64 2.94-.64 7.41 0 4.48.64 7.41.64 2.94 1.72 4.68 1.08 1.74 2.49 2.44 1.42.69 2.93.69 1.53 0 2.96-.69 1.42-.7 2.52-2.44t1.75-4.68q.66-2.93.66-7.41Zm40.33 0q0 5.39-1.16 9.37-1.15 3.97-3.19 6.57-2.04 2.59-4.82 3.86-2.77 1.27-5.99 1.27t-5.98-1.27q-2.75-1.27-4.77-3.86-2.02-2.6-3.16-6.57-1.14-3.98-1.14-9.37 0-5.41 1.14-9.37 1.14-3.96 3.16-6.56 2.02-2.59 4.77-3.86 2.76-1.27 5.98-1.27 3.22 0 5.99 1.27 2.78 1.27 4.82 3.86 2.04 2.6 3.19 6.56 1.16 3.96 1.16 9.37Zm-7.27 0q0-4.47-.66-7.41-.65-2.93-1.75-4.67-1.1-1.74-2.52-2.44-1.43-.69-2.96-.69-1.51 0-2.93.69-1.41.7-2.49 2.44-1.08 1.74-1.72 4.67-.64 2.94-.64 7.41 0 4.48.64 7.41.64 2.94 1.72 4.68 1.08 1.74 2.49 2.44 1.42.69 2.93.69 1.53 0 2.96-.69 1.42-.7 2.52-2.44t1.75-4.68q.66-2.93.66-7.41Z"/></svg>